#!OML:ASF F:\VICON\USERDATA\INSTALL\Justin_Nancy\Justin_Nancy.ASF
:FULLY-SPECIFIED
:DEGREES
393
root -7.73929 17.7084 11.9212 108.768 -86.7672 -106.737
lowerback 7.08369 1.48199 0.464477
upperback -0.0462224 2.11299 3.83089
thorax -4.15373 1.05307 3.49536
lowerneck -16.9787 -4.07299 -10.8283
upperneck 26.3136 -4.96988 6.74676
head 11.8933 -2.62414 3.57157
rclavicle -1.53064e-014 -2.46493e-014
rhumerus -33.1879 -11.2192 -79.3114
rradius 27.618
rwrist 4.72156
rhand -15.0528 10.9012
rfingers 7.12502
rthumb 11.1138 -18.7845
lclavicle -1.53064e-014 -2.46493e-014
lhumerus -29.0432 9.31489 86.467
lradius 27.364
lwrist -10.9034
lhand -14.625 25.3794
lfingers 7.12502
lthumb 11.5264 55.0424
rfemur -5.66472 1.82023 31.2313
rtibia 10.7665
rfoot -5.51904 -3.14714
rtoes 27.6275
lfemur -22.044 2.25124 -15.1628
ltibia 66.12
lfoot 5.85738 -7.2715
ltoes -1.23669
394
root -7.87418 17.6981 11.9302 109.932 -86.5118 -107.936
lowerback 6.96968 1.50898 0.708927
upperback 0.00128314 2.16294 3.90008
thorax -4.03673 1.07117 3.42687
lowerneck -16.9692 -4.00416 -10.908
upperneck 26.3688 -4.84739 6.7304
head 11.9018 -2.58121 3.59954
rclavicle -1.94312e-014 -2.06736e-014
rhumerus -32.8835 -10.961 -79.4071
rradius 28.1506
rwrist 3.85901
rhand -15.553 10.6626
rfingers 7.12502
rthumb 10.6313 -19.0485
lclavicle -1.94312e-014 -2.06736e-014
lhumerus -29.1752 9.93093 86.2743
lradius 27.1131
lwrist -10.4042
lhand -15.092 25.1436
lfingers 7.12502
lthumb 11.076 54.8313
rfemur -5.383 1.8108 31.3675
rtibia 11.4408
rfoot -5.3018 -2.3646
rtoes 23.7213
lfemur -22.9494 2.59096 -14.9631
ltibia 66.1725
lfoot 4.81745 -7.94101
ltoes 0.0656142
395
root -8.00879 17.6713 11.9362 111.566 -86.0124 -109.633
lowerback 6.88945 1.55072 1.07387
upperback 0.0485326 2.24175 4.01149
thorax -3.93742 1.10103 3.33118
lowerneck -16.8369 -3.92634 -10.9549
upperneck 26.2652 -4.74331 6.7752
head 11.8258 -2.53431 3.63985
rclavicle -1.44119e-015 1.59028e-014
rhumerus -32.6125 -10.3192 -79.5282
rradius 28.5912
rwrist 3.24035
rhand -15.275 11.2324
rfingers 7.12502
rthumb 10.8995 -18.4647
lclavicle -1.44119e-015 1.59028e-014
lhumerus -29.3476 9.27566 86.3017
lradius 27.0306
lwrist -8.61107
lhand -15.7765 25.3844
lfingers 7.12502
lthumb 10.4158 55.1064
rfemur -5.17771 1.30755 31.8796
rtibia 12.1398
rfoot -9.345 -3.28165
rtoes 44.0452
lfemur -23.8277 2.9557 -14.5547
ltibia 66.1288
lfoot 3.4314 -6.95999
ltoes -3.94822
396
root -8.1494 17.6481 11.9438 116.602 -85.9852 -114.673
lowerback 6.68527 1.71666 0.968288
upperback 0.0888077 2.44606 3.93029
thorax -3.79209 1.20472 3.2897
lowerneck -16.8817 -3.89569 -10.894
upperneck 26.3925 -4.69521 6.68565
head 11.8751 -2.52022 3.60523
rclavicle -1.48592e-014 -2.06736e-014
rhumerus -32.3454 -10.9109 -79.3552
rradius 28.8023
rwrist 4.15933
rhand -14.6083 12.0086
rfingers 7.12502
rthumb 11.5425 -17.6536
lclavicle -1.48592e-014 -2.06736e-014
lhumerus -29.5166 6.87604 86.7851
lradius 27.1496
lwrist -5.46133
lhand -16.2274 26.3454
lfingers 7.12502
lthumb 9.98077 56.0888
rfemur -5.08272 0.846529 31.8774
rtibia 12.849
rfoot -7.64944 -2.08087
rtoes 30.2493
lfemur -24.6879 3.06309 -14.8023
ltibia 65.8695
lfoot 2.7199 -4.59658
ltoes -4.97966
397
root -8.29467 17.6434 11.9574 121.157 -85.8406 -119.353
lowerback 6.58837 1.91788 1.20408
upperback 0.179484 2.72042 3.69975
thorax -3.63483 1.33562 2.89252
lowerneck -16.6564 -4.10485 -10.2053
upperneck 26.1102 -5.05849 6.17805
head 11.7238 -2.67371 3.23412
rclavicle 3.47873e-014 5.48646e-014
rhumerus -32.1429 -11.7179 -79.4538
rradius 29.1341
rwrist 4.62361
rhand -14.5756 12.6927
rfingers 7.12502
rthumb 11.5741 -16.9677
lclavicle 3.47873e-014 5.48646e-014
lhumerus -29.4651 5.00424 86.9264
lradius 26.9831
lwrist -3.14593
lhand -16.5373 27.187
lfingers 7.12502
lthumb 9.68182 56.9445
rfemur -4.71141 1.61052 31.7107
rtibia 13.5572
rfoot -7.98217 -1.8959
rtoes 25.2438
lfemur -25.2297 3.0437 -14.9657
ltibia 65.3959
lfoot 1.18438 -0.781696
ltoes -9.43971
398
root -8.43096 17.6352 11.9705 121.481 -85.5282 -119.771
lowerback 6.58883 1.98416 1.67631
upperback 0.226946 2.83781 3.64669
thorax -3.56498 1.38405 2.56133
lowerneck -15.9578 -4.47749 -8.96598
upperneck 25.2754 -5.64194 5.04425
head 11.2458 -2.94936 2.50931
rclavicle 3.8266e-015 7.95139e-016
rhumerus -31.8895 -10.8446 -79.925
rradius 29.8571
rwrist 3.23486
rhand -14.5834 12.3632
rfingers 7.12502
rthumb 11.5665 -17.2976
lclavicle 3.8266e-015 7.95139e-016
lhumerus -29.4246 5.26562 86.6746
lradius 26.541
lwrist -2.66374
lhand -16.719 26.9284
lfingers 7.12502
lthumb 9.50651 56.6939
rfemur -4.50652 2.00566 31.8376
rtibia 14.4931
rfoot -9.10831 -1.75114
rtoes 28.0531
lfemur -25.808 3.11596 -14.7545
ltibia 64.7771
lfoot -0.0432709 0.576198
ltoes -10.4371
